<svg xmlns="http://www.w3.org/2000/svg" viewBox="0 0 576 512">
  <!-- Background Rectangle -->
  <!-- <rect x="0" y="0" width="576" height="512" fill="black" /> -->
  
  <!-- YouTube Logo -->
  <path fill="#ef0101" d="M549.7 124.1c-6.3-23.7-24.8-42.3-48.3-48.6C458.8 64 288 64 288 64S117.2 64 74.6 75.5c-23.5 6.3-42 24.9-48.3 48.6-11.4 42.9-11.4 132.3-11.4 132.3s0 89.4 11.4 132.3c6.3 23.7 24.8 41.5 48.3 47.8C117.2 448 288 448 288 448s170.8 0 213.4-11.5c23.5-6.3 42-24.2 48.3-47.8 11.4-42.9 11.4-132.3 11.4-132.3s0-89.4-11.4-132.3z"/>
  
  <!-- White Play Button -->
  <path fill="white" d="M232.2 337.6V174.4L374.9 256 232.2 337.6z"/>
</svg>
